<svg width="28" height="28" viewBox="0 0 28 28" fill="none" xmlns="http://www.w3.org/2000/svg">
<circle cx="14" cy="14" r="14" fill="white"/>
<circle cx="14" cy="14" r="13.5" stroke="black" stroke-opacity="0.2"/>
<path fill-rule="evenodd" clip-rule="evenodd" d="M14.4799 7C10.889 7 8 9.88895 8 13.4799C8 16.3419 9.86297 18.7718 12.4279 19.6358C12.7519 19.6898 12.8599 19.5008 12.8599 19.3118C12.8599 19.1498 12.8599 18.7448 12.8599 18.2048C11.051 18.6098 10.673 17.3408 10.673 17.3408C10.376 16.5848 9.94397 16.3959 9.94397 16.3959C9.34998 15.9909 9.99797 15.9909 9.99797 15.9909C10.646 16.0449 10.997 16.6658 10.997 16.6658C11.5639 17.6648 12.5089 17.3678 12.8869 17.2058C12.9409 16.7738 13.1029 16.5038 13.2919 16.3419C11.8609 16.1799 10.349 15.6129 10.349 13.1289C10.349 12.4269 10.592 11.8329 11.024 11.4009C10.97 11.2389 10.727 10.5909 11.078 9.67296C11.078 9.67296 11.6179 9.51096 12.8599 10.3479C13.3729 10.2129 13.9399 10.1319 14.4799 10.1319C15.0199 10.1319 15.5869 10.2129 16.0999 10.3479C17.3418 9.51096 17.8818 9.67296 17.8818 9.67296C18.2328 10.5639 18.0168 11.2119 17.9358 11.4009C18.3408 11.8599 18.6108 12.4269 18.6108 13.1289C18.6108 15.6129 17.0989 16.1529 15.6409 16.3148C15.8839 16.5038 16.0729 16.9088 16.0729 17.5028C16.0729 18.3668 16.0729 19.0688 16.0729 19.2848C16.0729 19.4468 16.1809 19.6628 16.5319 19.6088C19.0968 18.7718 20.9598 16.3419 20.9598 13.4799C20.9598 9.88895 18.0708 7 14.4799 7Z" fill="black"/>
</svg>
